<svg width="208" height="77" viewBox="0 0 208 77" fill="none" xmlns="http://www.w3.org/2000/svg">
<g filter="url(#filter0_d_198_539)">
<path fill-rule="evenodd" clip-rule="evenodd" d="M80.0001 0C84.6984 0.0897648 89.6984 1.04438 94.2595 3.79084C96.4408 5.10451 98.3357 6.75653 99.6425 8.97303C100.033 9.63564 100.431 10.2958 100.83 10.9565L100.83 10.9572C102.307 13.4066 103.788 15.8628 104.91 18.4743C107.693 24.9477 106.893 31.2382 102.809 36.9434C98.0595 43.5756 91.951 48.4437 84.0594 50.5531C75.8527 52.7472 68.8069 50.5618 63.4493 43.7983C58.9001 38.0568 55.5425 31.6145 54.1052 24.3038C52.8848 18.0962 53.695 12.334 58.412 7.71287C61.3882 4.79551 65.0137 2.97432 68.9035 1.68136C72.3374 0.540315 75.873 0.0258937 80.0001 0ZM83.5544 42.2413C88.3357 42.2378 92.1476 41.0985 95.0544 37.9239C99.8662 32.6675 102.065 26.327 101.595 19.1821C101.232 13.6822 98.6628 9.49781 93.3967 7.51263C89.0374 5.86751 84.4916 5.46357 79.9272 6.33015C72.5645 7.73013 66.473 14.3451 64.9272 22.3463C63.8035 28.1654 65.3798 33.0196 69.873 36.826C74.0052 40.3251 78.773 42.1239 83.5544 42.243V42.2413ZM204 22.1201H203.888H203.887V22.8175H163.063C163.097 23.3699 163.149 23.9223 163.221 24.4695C163.624 27.5319 164.558 30.5217 166.026 33.2285C167.402 35.7661 169.243 38.0464 171.468 39.859C173.641 41.6301 177.502 43.655 180.2 44.3541C181.749 44.7563 183.348 44.9566 184.946 44.9566C191.234 44.9566 197.193 40.641 200.248 35.0669L200.499 34.6095H203.756L203.114 35.9024C198.948 44.292 190.4 49.5018 180.809 49.5018C166.951 49.5018 155.678 38.459 155.678 24.8855C155.678 11.312 166.953 0.269238 180.809 0.269238C191.231 0.269238 202.471 7.3762 203.887 20.9583H203.888V20.979C203.893 21.0325 203.9 21.086 203.905 21.1413L204 22.1201ZM178.778 4.99398C175.848 4.99398 172.912 5.71555 170.382 7.24673C167.97 8.70541 166.014 10.8615 164.754 13.4129C163.598 15.7554 163.075 18.3499 163.022 20.9566H194.385C194.227 19.8155 194.068 18.6762 193.783 17.5524C193.402 16.0575 192.863 14.6005 192.129 13.2454C190.722 10.6474 188.649 8.44992 186.109 6.98779C183.885 5.70692 181.337 4.99398 178.778 4.99398ZM126.204 48.8391L109.262 0.714746H117.077L134.567 48.8391H126.204ZM151.995 0.714771L134.568 48.8391H136.512L153.941 0.714771H151.995ZM42.7017 41.6905V0.536816H44.5255V48.9615H42.7475H42.7017H38.1949L5.82543 9.52193V48.9632H4V0.538543H4.25085H5.82543H8.95255L42.7017 41.6905ZM98.5512 51.5354C99.0326 51.3697 99.5394 51.0089 99.5699 50.4686V50.4703C99.5936 49.8298 99.3123 49.5606 98.7597 49.7159C98.4523 49.8028 98.1468 49.893 97.8412 49.9832C97.6549 50.0382 97.4686 50.0932 97.2818 50.1475L97.0172 50.2243C96.1192 50.4851 95.2227 50.7454 94.3275 51.0158C92.3784 51.6044 90.4411 52.2466 88.5648 53.0493C84.7207 54.6944 81.2428 57.1008 78.7326 60.536C77.9445 61.6132 77.3258 63.2186 77.4597 64.4891C77.6055 65.858 78.458 67.8139 79.5004 68.2368C80.5784 68.6753 82.6089 67.9727 83.5885 67.0612C84.7785 65.9547 85.6174 64.4225 86.4371 62.9255C86.5842 62.657 86.7306 62.3895 86.8784 62.1259C89.6106 57.251 93.1834 53.3911 98.5512 51.5354Z" fill="#F3F1EC"/>
</g>
<defs>
<filter id="filter0_d_198_539" x="0" y="0" width="208" height="76.3707" filterUnits="userSpaceOnUse" color-interpolation-filters="sRGB">
<feFlood flood-opacity="0" result="BackgroundImageFix"/>
<feColorMatrix in="SourceAlpha" type="matrix" values="0 0 0 0 0 0 0 0 0 0 0 0 0 0 0 0 0 0 127 0" result="hardAlpha"/>
<feOffset dy="4"/>
<feGaussianBlur stdDeviation="2"/>
<feComposite in2="hardAlpha" operator="out"/>
<feColorMatrix type="matrix" values="0 0 0 0 0 0 0 0 0 0 0 0 0 0 0 0 0 0 0.25 0"/>
<feBlend mode="normal" in2="BackgroundImageFix" result="effect1_dropShadow_198_539"/>
<feBlend mode="normal" in="SourceGraphic" in2="effect1_dropShadow_198_539" result="shape"/>
</filter>
</defs>
</svg>
