<?xml version="1.0" encoding="UTF-8"?>
<svg version="1.1" xmlns="http://www.w3.org/2000/svg" width="1334" height="1334">
<path d="M0 0 C440.22 0 880.44 0 1334 0 C1334 440.22 1334 880.44 1334 1334 C893.78 1334 453.56 1334 0 1334 C0 893.78 0 453.56 0 0 Z " fill="#182315" transform="translate(0,0)"/>
<path d="M0 0 C0.99161133 0.31018066 1.98322266 0.62036133 3.00488281 0.93994141 C33.59597988 10.54601324 59.53393164 25.20723363 83 47 C83.60457031 47.55042969 84.20914062 48.10085938 84.83203125 48.66796875 C112.92334849 75.31195817 126.55890808 115.00111196 131.75 152.375 C131.86553223 153.20459229 131.98106445 154.03418457 132.10009766 154.88891602 C133.82021002 168.30396534 134.26577178 181.86135292 134.3125 195.375 C134.31511841 196.11657349 134.31773682 196.85814697 134.32043457 197.62219238 C134.32674291 214.60693999 132.47642671 231.21774798 130 248 C129.75975098 249.66289063 129.75975098 249.66289063 129.51464844 251.359375 C119.89342024 316.39969471 88.10538832 377.29648629 43.55859375 425.21875 C41.45888734 427.50117896 39.43602977 429.81747882 37.4375 432.1875 C19.88032307 452.26464821 -4.52078227 465.40998629 -29 475 C-29.87325928 475.34248779 -30.74651855 475.68497559 -31.64624023 476.0378418 C-38.42527521 478.60411679 -45.24763834 480.46126001 -52.3125 482.0625 C-53.9989563 482.44764771 -53.9989563 482.44764771 -55.71948242 482.84057617 C-76.33394698 487.41044234 -97.04361922 489.21807078 -118.125 489.1875 C-118.89823608 489.18689575 -119.67147217 489.1862915 -120.46813965 489.18566895 C-132.09488565 489.16104237 -143.49658186 488.81761326 -155 487 C-156.32717041 486.79866455 -156.32717041 486.79866455 -157.68115234 486.59326172 C-233.21616284 474.95563768 -309.37472864 435.24939129 -355.62695312 373.21020508 C-371.53554942 351.41057342 -382.10481536 327.30726146 -388 301 C-388.17789062 300.23123535 -388.35578125 299.4624707 -388.5390625 298.67041016 C-394.18366938 272.92809089 -393.31052519 241.7133039 -388 216 C-387.82839355 215.12682129 -387.65678711 214.25364258 -387.47998047 213.35400391 C-377.34486123 162.51537631 -354.32266561 114.89193688 -320 76 C-319.31164062 75.20078125 -318.62328125 74.4015625 -317.9140625 73.578125 C-307.30209825 61.46178268 -295.83720852 49.75627847 -283 40 C-281.83679175 39.08520457 -280.67406401 38.16979794 -279.51171875 37.25390625 C-200.96409916 -23.92047219 -92.40511948 -29.92848738 0 0 Z " fill="#182315" transform="translate(813,307)"/>
<path d="M0 0 C21.08088516 -0.4200857 41.70033111 0.03282849 62.64868164 2.62579346 C65.98468804 3.03075048 69.32244365 3.38826697 72.6652832 3.73175049 C86.72945498 5.21626018 100.32569146 7.71252476 114.0637207 11.04034424 C115.2314502 11.31475342 116.39917969 11.5891626 117.60229492 11.87188721 C164.40334645 22.92884192 210.29030088 41.84856889 248.34155273 71.69268799 C249.84010122 72.86535423 251.35486924 74.01723548 252.87231445 75.16534424 C275.61462995 92.88842724 291.28122965 115.12937775 305.82861328 139.62284851 C309.51952832 145.8293324 313.32185302 151.96539319 317.1262207 158.10284424 C349.67972573 210.84781474 382.24098967 264.93287761 392.0637207 327.04034424 C392.24990967 328.18148682 392.43609863 329.32262939 392.62792969 330.49835205 C394.12768622 340.50384204 394.42136581 350.31450776 394.3762207 360.41534424 C394.37473022 361.24328491 394.37323975 362.07122559 394.3717041 362.92425537 C394.32595335 377.12679006 393.48238255 391.02273704 391.0637207 405.04034424 C390.93513672 405.81539307 390.80655273 406.59044189 390.67407227 407.38897705 C382.10005872 457.02226157 353.95800367 502.00791625 322.0637207 540.04034424 C320.58382916 541.87309249 319.10467811 543.70643889 317.6262207 545.54034424 C313.70867785 550.3330101 309.60259084 554.91996062 305.41137695 559.47393799 C303.36047972 561.7159338 301.35894537 563.98825453 299.3762207 566.29034424 C296.64649033 569.43560734 293.76329625 572.36454883 290.7902832 575.27862549 C289.07502705 577.02880768 287.51131495 578.84925259 285.9387207 580.72784424 C281.33149347 586.06360852 276.05402581 590.68805551 270.84155273 595.41534424 C269.04572305 597.05679471 267.26899605 598.71662921 265.49731445 600.38409424 C258.56939368 606.90247807 251.53202041 613.13875348 244.0637207 619.04034424 C242.85374358 620.02690446 241.64413421 621.01391583 240.43481445 622.00128174 C220.28939732 638.25251671 198.30908865 652.45124087 175.53295898 664.70880127 C173.25994523 665.93452967 171.00219567 667.18401508 168.74731445 668.44268799 C130.60894984 689.49349817 87.84863955 703.36728616 45.0637207 711.04034424 C43.64422119 711.29702881 43.64422119 711.29702881 42.19604492 711.55889893 C39.67516473 712.00650167 37.15249562 712.43685341 34.6262207 712.85284424 C33.94833496 712.96491211 33.27044922 713.07697998 32.57202148 713.19244385 C19.27655576 715.21510362 5.85291602 715.24754226 -7.5612793 715.22784424 C-8.45078278 715.22657532 -9.34028625 715.2253064 -10.25674438 715.22399902 C-35.65478188 715.15488561 -35.65478188 715.15488561 -47.9362793 713.04034424 C-49.00249512 712.85729736 -50.06871094 712.67425049 -51.16723633 712.48565674 C-104.84519591 702.9284874 -150.85541896 677.6848483 -189.9362793 640.04034424 C-190.48944824 639.50908936 -191.04261719 638.97783447 -191.61254883 638.43048096 C-198.06596979 632.19914503 -204.14000221 625.86032636 -209.7175293 618.81768799 C-211.6632315 616.3821347 -213.66961832 614.01656586 -215.71264648 611.66265869 C-223.62594677 602.51021924 -230.7749787 592.7848082 -237.9362793 583.04034424 C-238.5226416 582.24338135 -239.10900391 581.44641846 -239.71313477 580.62530518 C-251.51361545 564.54501369 -262.40387612 547.9745781 -272.9362793 531.04034424 C-273.33169922 530.40693115 -273.72711914 529.77351807 -274.13452148 529.12091064 C-297.23329613 491.96511472 -315.19732144 452.15280734 -329.9362793 411.04034424 C-330.27079102 410.11608643 -330.60530273 409.19182861 -330.94995117 408.23956299 C-337.54789282 389.84763989 -342.36730046 371.01799606 -346.9362793 352.04034424 C-347.34088379 350.36923584 -347.34088379 350.36923584 -347.75366211 348.66436768 C-353.75894659 323.38366398 -356.30548623 298.15762176 -356.3112793 272.22784424 C-356.31318268 271.31716187 -356.31508606 270.40647949 -356.31704712 269.46820068 C-356.31303472 252.56184215 -355.35393452 235.66272251 -351.7487793 219.10284424 C-351.53447266 218.10543213 -351.32016602 217.10802002 -351.09936523 216.0803833 C-339.97768303 166.41821822 -309.85081551 122.2611664 -269.9362793 91.04034424 C-268.88028035 90.18388579 -267.82564907 89.32573895 -266.7722168 88.46612549 C-222.25457253 52.41164003 -167.0464781 29.27151768 -111.9362793 15.04034424 C-110.8745752 14.76496826 -109.81287109 14.48959229 -108.71899414 14.20587158 C-80.20756992 6.93670718 -51.22072407 3.28685671 -21.9362793 1.04034424 C-20.58711426 0.93230469 -20.58711426 0.93230469 -19.21069336 0.82208252 C-12.80879544 0.32932721 -6.41837093 0.13373292 0 0 Z M16.0637207 88.04034424 C15.39308594 88.16989502 14.72245117 88.2994458 14.03149414 88.43292236 C-5.67273165 92.34166672 -24.91613577 99.22018967 -42.9362793 108.04034424 C-43.70246582 108.4138501 -44.46865234 108.78735596 -45.25805664 109.17218018 C-62.37035896 117.61410874 -78.13510734 128.01236653 -92.9362793 140.04034424 C-93.46044434 140.46154541 -93.98460937 140.88274658 -94.5246582 141.31671143 C-109.65878488 153.56097319 -124.19014125 167.49046698 -135.9362793 183.04034424 C-137.08676758 184.48280518 -137.08676758 184.48280518 -138.26049805 185.95440674 C-164.66006902 219.16575762 -183.55356207 258.4322356 -193.36352539 299.6506958 C-193.83980953 301.63785229 -194.34704832 303.61755863 -194.86206055 305.59503174 C-195.65626028 308.73110249 -196.32016347 311.86441384 -196.9362793 315.04034424 C-197.07163086 315.69937744 -197.20698242 316.35841064 -197.34643555 317.03741455 C-202.46208961 342.97285893 -202.88508529 374.21872336 -196.9362793 400.04034424 C-196.65421631 401.31869141 -196.65421631 401.31869141 -196.36645508 402.62286377 C-191.48831937 424.10296016 -183.05381248 444.63202696 -170.9362793 463.04034424 C-170.53973145 463.64491455 -170.14318359 464.24948486 -169.73461914 464.87237549 C-156.86990121 484.20894701 -140.33005624 501.89682646 -121.9362793 516.04034424 C-120.62610783 517.06733645 -119.31623436 518.0947089 -118.0065918 519.12237549 C-108.92520948 526.20302227 -99.66352224 532.87607845 -89.9362793 539.04034424 C-89.07631348 539.58803467 -89.07631348 539.58803467 -88.19897461 540.14678955 C-51.24022322 563.49466933 -9.45274387 580.16843459 34.06665039 585.78009033 C36.09383358 586.04426848 38.11257432 586.34901552 40.1340332 586.65362549 C89.48236951 593.49114728 144.14858112 585.83524154 188.0637207 562.04034424 C189.13235352 561.4641333 190.20098633 560.88792236 191.30200195 560.29425049 C214.15410938 547.46031726 233.04071324 528.5530199 249.0637207 508.04034424 C249.54131836 507.43529053 250.01891602 506.83023682 250.51098633 506.20684814 C263.03129555 490.3147869 274.13663288 473.66641256 284.0637207 456.04034424 C284.44093262 455.37776611 284.81814453 454.71518799 285.20678711 454.03253174 C306.6428569 416.12218724 316.9597689 374.74439386 323.0637207 332.04034424 C323.19939453 331.14283447 323.33506836 330.24532471 323.47485352 329.32061768 C327.09244512 305.11842031 325.97935315 279.25515082 323.0637207 255.04034424 C322.96720215 254.16845459 322.87068359 253.29656494 322.77124023 252.39825439 C318.24461507 212.04513778 302.05131742 173.87471943 273.0637207 145.04034424 C271.66573242 143.64235596 271.66573242 143.64235596 270.23950195 142.21612549 C242.47461226 115.66334557 206.48372504 102.88011112 170.0637207 93.04034424 C169.33378906 92.84102295 168.60385742 92.64170166 167.85180664 92.43634033 C119.03397341 79.3385843 65.64237507 78.19664047 16.0637207 88.04034424 Z " fill="#E99FC0" transform="translate(621.936279296875,207.95965576171875)"/>
<path d="M0 0 C2.35296235 1.73697456 2.93667395 2.59893502 3.3984375 5.5234375 C3.3174946 15.37149028 3.3174946 15.37149028 0 19 C-5.24612948 23.52076778 -10.33228308 26.22469234 -16.875 28.375 C-60.85497299 43.78413591 -103.02601465 72.55553753 -131.9453125 109.38671875 C-134.14098803 112.17931747 -136.43944077 114.8643869 -138.75 117.5625 C-156.54842333 138.94264939 -170.35228261 162.95369977 -183.88232422 187.15567017 C-194.5945593 206.29341532 -205.43538989 224.36830105 -221 240 C-221.6496875 240.68449219 -222.299375 241.36898438 -222.96875 242.07421875 C-234.74872248 253.57002523 -253.8999781 259.80886574 -270 260.4375 C-278.76797524 260.27583451 -284.67389175 257.37599871 -291.125 251.5625 C-305.65488353 235.86085167 -310.93143198 214.35734144 -310.17041016 193.56982422 C-309.33163807 180.92094894 -304.15414942 169.88949201 -298 159 C-297.1646875 157.51886719 -297.1646875 157.51886719 -296.3125 156.0078125 C-292.03031735 148.90515378 -286.78303403 142.70279088 -281.31835938 136.49755859 C-280.16697255 135.18966845 -279.02774021 133.87109836 -277.890625 132.55078125 C-267.26108058 120.41744469 -255.77926725 108.85723509 -243 99 C-241.49373047 97.76830078 -241.49373047 97.76830078 -239.95703125 96.51171875 C-201.67970124 65.31621004 -156.10901823 45.39214904 -109.75 29.5625 C-108.90929962 29.27522034 -108.06859924 28.98794067 -107.2024231 28.69195557 C-95.59150447 24.74100316 -83.90596855 21.09366058 -72.14086914 17.63027954 C-70.29151106 17.0858219 -68.44347971 16.53686154 -66.59570312 15.98706055 C-54.10851457 12.27239672 -41.57625692 8.76097741 -28.98071289 5.43188477 C-23.36114411 3.93919351 -17.82735414 2.34039284 -12.3125 0.5 C-7.70205354 -0.9575767 -4.6369507 -1.51204914 0 0 Z " fill="#E99FC0" transform="translate(914,900)"/>
</svg>
